<?xml version="1.0" encoding="UTF-8" standalone="no"?>
<!-- Created with Inkscape (http://www.inkscape.org/) -->

<svg
   xmlns:dc="http://purl.org/dc/elements/1.1/"
   xmlns:cc="http://creativecommons.org/ns#"
   xmlns:rdf="http://www.w3.org/1999/02/22-rdf-syntax-ns#"
   xmlns:svg="http://www.w3.org/2000/svg"
   xmlns="http://www.w3.org/2000/svg"
   xmlns:xlink="http://www.w3.org/1999/xlink"
   xmlns:sodipodi="http://sodipodi.sourceforge.net/DTD/sodipodi-0.dtd"
   xmlns:inkscape="http://www.inkscape.org/namespaces/inkscape"
   width="57"
   height="57"
   id="svg2"
   version="1.1"
   inkscape:version="0.48.0 r9654"
   sodipodi:docname="Opportunities.svg"
   inkscape:export-filename="/home/kdesoldeveloper/www/KDESolWeb/apple-touch-icon.png"
   inkscape:export-xdpi="90"
   inkscape:export-ydpi="90">
  <defs
     id="defs4">
    <linearGradient
       id="linearGradient3867">
      <stop
         style="stop-color:#000000;stop-opacity:0;"
         offset="0"
         id="stop3869" />
      <stop
         style="stop-color:#000000;stop-opacity:0;"
         offset="1"
         id="stop3871" />
    </linearGradient>
    <linearGradient
       id="linearGradient3855">
      <stop
         style="stop-color:#ffffff;stop-opacity:0.33725491;"
         offset="0"
         id="stop3857" />
      <stop
         id="stop3865"
         offset="0.62"
         style="stop-color:#ffffff;stop-opacity:0.29411766;" />
      <stop
         id="stop3863"
         offset="0.63"
         style="stop-color:#000000;stop-opacity:0.23529412;" />
      <stop
         style="stop-color:#ffffff;stop-opacity:0;"
         offset="1"
         id="stop3859" />
    </linearGradient>
    <linearGradient
       id="linearGradient3816">
      <stop
         style="stop-color:#ffffff;stop-opacity:0;"
         offset="0"
         id="stop3818" />
      <stop
         style="stop-color:#000000;stop-opacity:0;"
         offset="1"
         id="stop3820" />
    </linearGradient>
    <linearGradient
       id="linearGradient3808">
      <stop
         style="stop-color:#ffffff;stop-opacity:0;"
         offset="0"
         id="stop3810" />
      <stop
         style="stop-color:#000000;stop-opacity:0;"
         offset="1"
         id="stop3812" />
    </linearGradient>
    <linearGradient
       id="linearGradient3794">
      <stop
         style="stop-color:#ffffff;stop-opacity:0.33725491;"
         offset="0"
         id="stop3796" />
      <stop
         id="stop3804"
         offset="0.25"
         style="stop-color:#ffffff;stop-opacity:0.29411766;" />
      <stop
         id="stop3802"
         offset="0.5"
         style="stop-color:#ffffff;stop-opacity:0.23529412;" />
      <stop
         style="stop-color:#ffffff;stop-opacity:0;"
         offset="1"
         id="stop3798" />
    </linearGradient>
    <radialGradient
       inkscape:collect="always"
       xlink:href="#linearGradient3855"
       id="radialGradient3861"
       cx="27"
       cy="998.86224"
       fx="27"
       fy="998.86224"
       r="28.5"
       gradientUnits="userSpaceOnUse"
       gradientTransform="matrix(-2.7881325,2.6907078e-7,-1.3050771e-7,-1.7982534,103.8871,2791.4139)" />
    <linearGradient
       inkscape:collect="always"
       xlink:href="#linearGradient3867"
       id="linearGradient3873"
       x1="49.688267"
       y1="996.5744"
       x2="57"
       y2="1010.6039"
       gradientUnits="userSpaceOnUse"
       gradientTransform="matrix(1.009046,0,0,1.1635762,-0.15041756,-162.97307)" />
    <radialGradient
       inkscape:collect="always"
       xlink:href="#linearGradient3855"
       id="radialGradient3037"
       gradientUnits="userSpaceOnUse"
       gradientTransform="matrix(-2.7693246,0,0,-1.8858891,103.26098,2879.4114)"
       cx="27"
       cy="998.86224"
       fx="27"
       fy="998.86224"
       r="28.5" />
    <linearGradient
       inkscape:collect="always"
       xlink:href="#linearGradient3867"
       id="linearGradient3039"
       gradientUnits="userSpaceOnUse"
       gradientTransform="matrix(1.0022393,0,0,1.0015864,-0.07459501,-1.2728975)"
       x1="49.688267"
       y1="996.5744"
       x2="57"
       y2="1010.6039" />
    <linearGradient
       inkscape:collect="always"
       xlink:href="#linearGradient7431-6-0-7"
       id="linearGradient3033"
       gradientUnits="userSpaceOnUse"
       gradientTransform="matrix(0.52348684,0,0,0.22635414,348.04925,768.6316)"
       x1="-608.96124"
       y1="1195.6759"
       x2="-608.96124"
       y2="1257.5997" />
    <linearGradient
       id="linearGradient7431-6-0-7">
      <stop
         style="stop-color:#ffffff;stop-opacity:0;"
         offset="0"
         id="stop7435-7-4-6" />
      <stop
         id="stop7461-8-07-4"
         offset="1"
         style="stop-color:#ffffff;stop-opacity:1;" />
      <stop
         id="stop7459-9-90-2"
         offset="1"
         style="stop-color:#ffffff;stop-opacity:1;" />
    </linearGradient>
    <linearGradient
       id="linearGradient4344">
      <stop
         style="stop-color:#727eb3;stop-opacity:1;"
         offset="0"
         id="stop4346" />
      <stop
         style="stop-color:#5b6598;stop-opacity:1;"
         offset="1"
         id="stop4348" />
    </linearGradient>
    <linearGradient
       id="linearGradient4338">
      <stop
         id="stop4340"
         offset="0.0000000"
         style="stop-color:#e9b15e;stop-opacity:1.0000000;" />
      <stop
         id="stop4342"
         offset="1.0000000"
         style="stop-color:#966416;stop-opacity:1.0000000;" />
    </linearGradient>
    <linearGradient
       id="linearGradient3824">
      <stop
         style="stop-color:#ffffff;stop-opacity:1;"
         offset="0"
         id="stop3826" />
      <stop
         style="stop-color:#c9c9c9;stop-opacity:1.0000000;"
         offset="1.0000000"
         id="stop3828" />
    </linearGradient>
    <linearGradient
       id="linearGradient6732">
      <stop
         style="stop-color:#ffffff;stop-opacity:1;"
         offset="0"
         id="stop6734" />
      <stop
         style="stop-color:#dddddd;stop-opacity:1;"
         offset="1"
         id="stop6736" />
    </linearGradient>
    <linearGradient
       id="linearGradient5048">
      <stop
         style="stop-color:black;stop-opacity:0;"
         offset="0"
         id="stop5050" />
      <stop
         id="stop5056"
         offset="0.5"
         style="stop-color:black;stop-opacity:1;" />
      <stop
         style="stop-color:black;stop-opacity:0;"
         offset="1"
         id="stop5052" />
    </linearGradient>
    <linearGradient
       inkscape:collect="always"
       id="linearGradient5060">
      <stop
         style="stop-color:black;stop-opacity:1;"
         offset="0"
         id="stop5062" />
      <stop
         style="stop-color:black;stop-opacity:0;"
         offset="1"
         id="stop5064" />
    </linearGradient>
    <radialGradient
       inkscape:collect="always"
       xlink:href="#linearGradient5060"
       id="radialGradient5031"
       gradientUnits="userSpaceOnUse"
       gradientTransform="matrix(-2.774389,0,0,1.969706,112.7623,-872.8854)"
       cx="605.71429"
       cy="486.64789"
       fx="605.71429"
       fy="486.64789"
       r="117.14286" />
    <linearGradient
       inkscape:collect="always"
       id="linearGradient5073-6">
      <stop
         style="stop-color:white;stop-opacity:1;"
         offset="0"
         id="stop5075-4" />
      <stop
         style="stop-color:white;stop-opacity:0;"
         offset="1"
         id="stop5077-8" />
    </linearGradient>
    <linearGradient
       inkscape:collect="always"
       id="linearGradient5073-6-5">
      <stop
         style="stop-color:white;stop-opacity:1;"
         offset="0"
         id="stop5075-4-0" />
      <stop
         style="stop-color:white;stop-opacity:0;"
         offset="1"
         id="stop5077-8-1" />
    </linearGradient>
    <linearGradient
       inkscape:collect="always"
       id="linearGradient5073-6-9">
      <stop
         style="stop-color:white;stop-opacity:1;"
         offset="0"
         id="stop5075-4-9" />
      <stop
         style="stop-color:white;stop-opacity:0;"
         offset="1"
         id="stop5077-8-7" />
    </linearGradient>
    <linearGradient
       inkscape:collect="always"
       xlink:href="#linearGradient5073-6"
       id="linearGradient4392"
       gradientUnits="userSpaceOnUse"
       gradientTransform="matrix(1.2221595,0,0,1.2221595,-505.50257,-319.70389)"
       x1="69.839012"
       y1="522.38086"
       x2="81.11171"
       y2="575.41388" />
    <linearGradient
       inkscape:collect="always"
       xlink:href="#linearGradient5073-6-5"
       id="linearGradient4394"
       gradientUnits="userSpaceOnUse"
       gradientTransform="matrix(1.2221595,0,0,1.2221595,-505.50257,-319.70389)"
       x1="69.839012"
       y1="522.38086"
       x2="81.11171"
       y2="575.41388" />
    <linearGradient
       inkscape:collect="always"
       xlink:href="#linearGradient5073-6-9"
       id="linearGradient4396"
       gradientUnits="userSpaceOnUse"
       gradientTransform="matrix(1.2221595,0,0,1.2221595,-505.50257,-319.70389)"
       x1="69.839012"
       y1="522.38086"
       x2="81.11171"
       y2="575.41388" />
  </defs>
  <sodipodi:namedview
     id="base"
     pagecolor="#ffffff"
     bordercolor="#666666"
     borderopacity="1.0"
     inkscape:pageopacity="0.0"
     inkscape:pageshadow="2"
     inkscape:zoom="7.79058"
     inkscape:cx="38.845133"
     inkscape:cy="19.38413"
     inkscape:document-units="px"
     inkscape:current-layer="layer1"
     showgrid="false"
     inkscape:window-width="1440"
     inkscape:window-height="849"
     inkscape:window-x="0"
     inkscape:window-y="124"
     inkscape:window-maximized="1">
    <inkscape:grid
       type="xygrid"
       id="grid3755"
       empspacing="5"
       visible="true"
       enabled="true"
       snapvisiblegridlinesonly="true" />
  </sodipodi:namedview>
  <metadata
     id="metadata7">
    <rdf:RDF>
      <cc:Work
         rdf:about="">
        <dc:format>image/svg+xml</dc:format>
        <dc:type
           rdf:resource="http://purl.org/dc/dcmitype/StillImage" />
        <dc:title></dc:title>
      </cc:Work>
    </rdf:RDF>
  </metadata>
  <g
     inkscape:label="Layer 1"
     inkscape:groupmode="layer"
     id="layer1"
     transform="translate(0,-995.36218)">
    <rect
       style="opacity:0.98999999;fill:#0b3361;fill-opacity:1;stroke:none"
       id="rect2985"
       width="56.93483"
       height="56.784275"
       x="0"
       y="995.57788"
       rx="9.9885674"
       inkscape:export-filename="/home/dave/Documents/KDESolutions/SugarCRM/Mobile App Icons/Contacts.png"
       inkscape:export-xdpi="88.305542"
       inkscape:export-ydpi="88.305542" />
    <path
       inkscape:connector-curvature="0"
       style="fill:#ffffff;fill-opacity:1;fill-rule:nonzero;stroke:none"
       d="m 33.848664,1000.9871 c -0.847258,0 -1.529346,0.6821 -1.529346,1.5293 l 0,4.5882 -10.705423,0 c -1.270886,0 -2.294019,1.0231 -2.294019,2.294 l 0,31.3516 c 0,1.2709 1.023133,2.294 2.294019,2.294 l 13.764115,0 c 1.270887,0 2.294019,-1.0231 2.294019,-2.294 l 0,-31.3516 c 0,-1.2709 -1.023132,-2.294 -2.294019,-2.294 l 0,-4.5882 c 0,-0.8472 -0.682088,-1.5293 -1.529346,-1.5293 z m -11.852432,8.4115 12.999442,0 c 0.423629,0 0.764673,0.341 0.764673,0.7647 l 0,13.7641 c 0,0.4236 -0.341044,0.7646 -0.764673,0.7646 l -12.999442,0 c -0.423629,0 -0.764673,-0.341 -0.764673,-0.7646 l 0,-13.7641 c 0,-0.4237 0.341044,-0.7647 0.764673,-0.7647 z m 0,16.8228 2.294019,0 c 0.423629,0 0.764673,0.341 0.764673,0.7647 l 0,2.294 c 0,0.4236 -0.341044,0.7647 -0.764673,0.7647 l -2.294019,0 c -0.423629,0 -0.764673,-0.3411 -0.764673,-0.7647 l 0,-2.294 c 0,-0.4237 0.341044,-0.7647 0.764673,-0.7647 z m 5.352711,0 2.294019,0 c 0.423629,0 0.764673,0.341 0.764673,0.7647 l 0,2.294 c 0,0.4236 -0.341044,0.7647 -0.764673,0.7647 l -2.294019,0 c -0.423629,0 -0.764673,-0.3411 -0.764673,-0.7647 l 0,-2.294 c 0,-0.4237 0.341044,-0.7647 0.764673,-0.7647 z m 5.352712,0 2.294019,0 c 0.423629,0 0.764673,0.341 0.764673,0.7647 l 0,2.294 c 0,0.4236 -0.341044,0.7647 -0.764673,0.7647 l -2.294019,0 c -0.423629,0 -0.764673,-0.3411 -0.764673,-0.7647 l 0,-2.294 c 0,-0.4237 0.341044,-0.7647 0.764673,-0.7647 z m -10.705423,5.3527 2.294019,0 c 0.423629,0 0.764673,0.341 0.764673,0.7647 l 0,2.294 c 0,0.4236 -0.341044,0.7647 -0.764673,0.7647 l -2.294019,0 c -0.423629,0 -0.764673,-0.3411 -0.764673,-0.7647 l 0,-2.294 c 0,-0.4237 0.341044,-0.7647 0.764673,-0.7647 z m 5.352711,0 2.294019,0 c 0.423629,0 0.764673,0.341 0.764673,0.7647 l 0,2.294 c 0,0.4236 -0.341044,0.7647 -0.764673,0.7647 l -2.294019,0 c -0.423629,0 -0.764673,-0.3411 -0.764673,-0.7647 l 0,-2.294 c 0,-0.4237 0.341044,-0.7647 0.764673,-0.7647 z m 5.352712,0 2.294019,0 c 0.423629,0 0.764673,0.341 0.764673,0.7647 l 0,2.294 c 0,0.4236 -0.341044,0.7647 -0.764673,0.7647 l -2.294019,0 c -0.423629,0 -0.764673,-0.3411 -0.764673,-0.7647 l 0,-2.294 c 0,-0.4237 0.341044,-0.7647 0.764673,-0.7647 z m -10.705423,5.3527 2.294019,0 c 0.423629,0 0.764673,0.3411 0.764673,0.7647 l 0,2.294 c 0,0.4236 -0.341044,0.7647 -0.764673,0.7647 l -2.294019,0 c -0.423629,0 -0.764673,-0.3411 -0.764673,-0.7647 l 0,-2.294 c 0,-0.4236 0.341044,-0.7647 0.764673,-0.7647 z m 5.352711,0 2.294019,0 c 0.423629,0 0.764673,0.3411 0.764673,0.7647 l 0,2.294 c 0,0.4236 -0.341044,0.7647 -0.764673,0.7647 l -2.294019,0 c -0.423629,0 -0.764673,-0.3411 -0.764673,-0.7647 l 0,-2.294 c 0,-0.4236 0.341044,-0.7647 0.764673,-0.7647 z m 5.352712,0 2.294019,0 c 0.423629,0 0.764673,0.3411 0.764673,0.7647 l 0,2.294 c 0,0.4236 -0.341044,0.7647 -0.764673,0.7647 l -2.294019,0 c -0.423629,0 -0.764673,-0.3411 -0.764673,-0.7647 l 0,-2.294 c 0,-0.4236 0.341044,-0.7647 0.764673,-0.7647 z"
       id="rect2890" />
    <rect
       style="opacity:0.98999999;fill:url(#radialGradient3037);fill-opacity:1;stroke:url(#linearGradient3039);stroke-width:1.00191283"
       id="rect2985-1"
       width="57.12764"
       height="57.090424"
       x="-0.074596472"
       y="995.66833"
       rx="10.022392"
       inkscape:export-filename="/home/dave/Documents/KDESolutions/SugarCRM/Mobile App Icons/Opportunities.png"
       inkscape:export-xdpi="88.305542"
       inkscape:export-ydpi="88.305542" />
  </g>
</svg>
