<?xml version="1.0" encoding="UTF-8" standalone="no"?>
<!-- Created with Inkscape (http://www.inkscape.org/) -->

<svg
   xmlns:dc="http://purl.org/dc/elements/1.1/"
   xmlns:cc="http://creativecommons.org/ns#"
   xmlns:rdf="http://www.w3.org/1999/02/22-rdf-syntax-ns#"
   xmlns:svg="http://www.w3.org/2000/svg"
   xmlns="http://www.w3.org/2000/svg"
   xmlns:xlink="http://www.w3.org/1999/xlink"
   xmlns:sodipodi="http://sodipodi.sourceforge.net/DTD/sodipodi-0.dtd"
   xmlns:inkscape="http://www.inkscape.org/namespaces/inkscape"
   width="57"
   height="57"
   id="svg2"
   version="1.1"
   inkscape:version="0.48.0 r9654"
   sodipodi:docname="Accounts.svg"
   inkscape:export-filename="/home/kdesoldeveloper/www/KDESolWeb/apple-touch-icon.png"
   inkscape:export-xdpi="90"
   inkscape:export-ydpi="90">
  <defs
     id="defs4">
    <linearGradient
       id="linearGradient3867">
      <stop
         style="stop-color:#000000;stop-opacity:0;"
         offset="0"
         id="stop3869" />
      <stop
         style="stop-color:#000000;stop-opacity:0;"
         offset="1"
         id="stop3871" />
    </linearGradient>
    <linearGradient
       id="linearGradient3855">
      <stop
         style="stop-color:#ffffff;stop-opacity:0.33725491;"
         offset="0"
         id="stop3857" />
      <stop
         id="stop3865"
         offset="0.62"
         style="stop-color:#ffffff;stop-opacity:0.29411766;" />
      <stop
         id="stop3863"
         offset="0.63"
         style="stop-color:#000000;stop-opacity:0.23529412;" />
      <stop
         style="stop-color:#ffffff;stop-opacity:0;"
         offset="1"
         id="stop3859" />
    </linearGradient>
    <linearGradient
       id="linearGradient3816">
      <stop
         style="stop-color:#ffffff;stop-opacity:0;"
         offset="0"
         id="stop3818" />
      <stop
         style="stop-color:#000000;stop-opacity:0;"
         offset="1"
         id="stop3820" />
    </linearGradient>
    <linearGradient
       id="linearGradient3808">
      <stop
         style="stop-color:#ffffff;stop-opacity:0;"
         offset="0"
         id="stop3810" />
      <stop
         style="stop-color:#000000;stop-opacity:0;"
         offset="1"
         id="stop3812" />
    </linearGradient>
    <linearGradient
       id="linearGradient3794">
      <stop
         style="stop-color:#ffffff;stop-opacity:0.33725491;"
         offset="0"
         id="stop3796" />
      <stop
         id="stop3804"
         offset="0.25"
         style="stop-color:#ffffff;stop-opacity:0.29411766;" />
      <stop
         id="stop3802"
         offset="0.5"
         style="stop-color:#ffffff;stop-opacity:0.23529412;" />
      <stop
         style="stop-color:#ffffff;stop-opacity:0;"
         offset="1"
         id="stop3798" />
    </linearGradient>
    <radialGradient
       inkscape:collect="always"
       xlink:href="#linearGradient3855"
       id="radialGradient3861"
       cx="27"
       cy="998.86224"
       fx="27"
       fy="998.86224"
       r="28.5"
       gradientUnits="userSpaceOnUse"
       gradientTransform="matrix(-2.7881325,2.6907078e-7,-1.3050771e-7,-1.7982534,103.8871,2791.4139)" />
    <linearGradient
       inkscape:collect="always"
       xlink:href="#linearGradient3867"
       id="linearGradient3873"
       x1="49.688267"
       y1="996.5744"
       x2="57"
       y2="1010.6039"
       gradientUnits="userSpaceOnUse"
       gradientTransform="matrix(1.009046,0,0,1.1635762,-0.15041756,-162.97307)" />
    <radialGradient
       inkscape:collect="always"
       xlink:href="#linearGradient3855"
       id="radialGradient3037"
       gradientUnits="userSpaceOnUse"
       gradientTransform="matrix(-2.7522986,0,0,-1.8858891,102.72017,2879.0263)"
       cx="27"
       cy="998.86224"
       fx="27"
       fy="998.86224"
       r="28.5" />
    <linearGradient
       inkscape:collect="always"
       xlink:href="#linearGradient3867"
       id="linearGradient3039"
       gradientUnits="userSpaceOnUse"
       gradientTransform="matrix(0.99607742,0,0,1.0015864,0.01990911,-1.6579783)"
       x1="49.688267"
       y1="996.5744"
       x2="57"
       y2="1010.6039" />
    <linearGradient
       inkscape:collect="always"
       xlink:href="#linearGradient7431-6-0-7"
       id="linearGradient3033"
       gradientUnits="userSpaceOnUse"
       gradientTransform="matrix(0.52348684,0,0,0.22635414,348.04925,768.6316)"
       x1="-608.96124"
       y1="1195.6759"
       x2="-608.96124"
       y2="1257.5997" />
    <linearGradient
       id="linearGradient7431-6-0-7">
      <stop
         style="stop-color:#ffffff;stop-opacity:0;"
         offset="0"
         id="stop7435-7-4-6" />
      <stop
         id="stop7461-8-07-4"
         offset="1"
         style="stop-color:#ffffff;stop-opacity:1;" />
      <stop
         id="stop7459-9-90-2"
         offset="1"
         style="stop-color:#ffffff;stop-opacity:1;" />
    </linearGradient>
    <linearGradient
       id="linearGradient4344">
      <stop
         style="stop-color:#727eb3;stop-opacity:1;"
         offset="0"
         id="stop4346" />
      <stop
         style="stop-color:#5b6598;stop-opacity:1;"
         offset="1"
         id="stop4348" />
    </linearGradient>
    <radialGradient
       inkscape:collect="always"
       xlink:href="#linearGradient3816-1"
       id="radialGradient6950"
       gradientUnits="userSpaceOnUse"
       cx="31.112698"
       cy="19.008621"
       fx="31.112698"
       fy="19.008621"
       r="8.6620579" />
    <linearGradient
       inkscape:collect="always"
       id="linearGradient3816-1">
      <stop
         style="stop-color:#000000;stop-opacity:1;"
         offset="0"
         id="stop3818-6" />
      <stop
         style="stop-color:#000000;stop-opacity:0;"
         offset="1"
         id="stop3820-8" />
    </linearGradient>
    <linearGradient
       id="linearGradient4338">
      <stop
         id="stop4340"
         offset="0.0000000"
         style="stop-color:#e9b15e;stop-opacity:1.0000000;" />
      <stop
         id="stop4342"
         offset="1.0000000"
         style="stop-color:#966416;stop-opacity:1.0000000;" />
    </linearGradient>
    <linearGradient
       id="linearGradient3824">
      <stop
         style="stop-color:#ffffff;stop-opacity:1;"
         offset="0"
         id="stop3826" />
      <stop
         style="stop-color:#c9c9c9;stop-opacity:1.0000000;"
         offset="1.0000000"
         id="stop3828" />
    </linearGradient>
    <linearGradient
       inkscape:collect="always"
       xlink:href="#linearGradient6732"
       id="linearGradient6738"
       x1="16.25"
       y1="12.25"
       x2="31.5"
       y2="36.625"
       gradientUnits="userSpaceOnUse"
       gradientTransform="matrix(1.107828,0,0,1,66.868008,1006.7142)" />
    <linearGradient
       id="linearGradient6732">
      <stop
         style="stop-color:#ffffff;stop-opacity:1;"
         offset="0"
         id="stop6734" />
      <stop
         style="stop-color:#dddddd;stop-opacity:1;"
         offset="1"
         id="stop6736" />
    </linearGradient>
    <linearGradient
       id="linearGradient5048">
      <stop
         style="stop-color:black;stop-opacity:0;"
         offset="0"
         id="stop5050" />
      <stop
         id="stop5056"
         offset="0.5"
         style="stop-color:black;stop-opacity:1;" />
      <stop
         style="stop-color:black;stop-opacity:0;"
         offset="1"
         id="stop5052" />
    </linearGradient>
    <linearGradient
       inkscape:collect="always"
       id="linearGradient5060">
      <stop
         style="stop-color:black;stop-opacity:1;"
         offset="0"
         id="stop5062" />
      <stop
         style="stop-color:black;stop-opacity:0;"
         offset="1"
         id="stop5064" />
    </linearGradient>
    <radialGradient
       inkscape:collect="always"
       xlink:href="#linearGradient5060"
       id="radialGradient5031"
       gradientUnits="userSpaceOnUse"
       gradientTransform="matrix(-2.774389,0,0,1.969706,112.7623,-872.8854)"
       cx="605.71429"
       cy="486.64789"
       fx="605.71429"
       fy="486.64789"
       r="117.14286" />
  </defs>
  <sodipodi:namedview
     id="base"
     pagecolor="#ffffff"
     bordercolor="#666666"
     borderopacity="1.0"
     inkscape:pageopacity="0.0"
     inkscape:pageshadow="2"
     inkscape:zoom="7.79058"
     inkscape:cx="38.845133"
     inkscape:cy="19.38413"
     inkscape:document-units="px"
     inkscape:current-layer="layer1"
     showgrid="false"
     inkscape:window-width="1440"
     inkscape:window-height="849"
     inkscape:window-x="0"
     inkscape:window-y="124"
     inkscape:window-maximized="1">
    <inkscape:grid
       type="xygrid"
       id="grid3755"
       empspacing="5"
       visible="true"
       enabled="true"
       snapvisiblegridlinesonly="true" />
  </sodipodi:namedview>
  <metadata
     id="metadata7">
    <rdf:RDF>
      <cc:Work
         rdf:about="">
        <dc:format>image/svg+xml</dc:format>
        <dc:type
           rdf:resource="http://purl.org/dc/dcmitype/StillImage" />
        <dc:title></dc:title>
      </cc:Work>
    </rdf:RDF>
  </metadata>
  <g
     inkscape:label="Layer 1"
     inkscape:groupmode="layer"
     id="layer1"
     transform="translate(0,-995.36218)">
    <rect
       style="opacity:0.98999999;fill:#0b3361;fill-opacity:1;stroke:none"
       id="rect2985"
       width="56.93483"
       height="56.784275"
       x="0"
       y="995.57788"
       rx="9.9885674"
       inkscape:export-filename="/home/dave/Documents/KDESolutions/SugarCRM/Mobile App Icons/Contacts.png"
       inkscape:export-xdpi="88.305542"
       inkscape:export-ydpi="88.305542" />
    <g
       id="g4150"
       transform="translate(-64.180074,-7.1881683)">
      <rect
         inkscape:export-ydpi="88.305542"
         inkscape:export-xdpi="88.305542"
         inkscape:export-filename="/home/dave/Documents/KDESolutions/SugarCRM/Mobile App Icons/Contacts.png"
         ry="2.75"
         rx="2.75"
         y="1015.7142"
         x="71.299316"
         height="30"
         width="43.897678"
         id="rect5857"
         style="color:#000000;fill:url(#linearGradient6738);fill-opacity:1;fill-rule:evenodd;stroke:#939393;stroke-width:1;stroke-linecap:butt;stroke-linejoin:miter;stroke-miterlimit:4;stroke-opacity:1;stroke-dasharray:none;stroke-dashoffset:0;marker:none;visibility:visible;display:inline;overflow:visible" />
      <rect
         inkscape:export-ydpi="88.305542"
         inkscape:export-xdpi="88.305542"
         inkscape:export-filename="/home/dave/Documents/KDESolutions/SugarCRM/Mobile App Icons/Contacts.png"
         style="color:#000000;fill:none;stroke:#ffffff;stroke-width:1.00000024;stroke-linecap:butt;stroke-linejoin:miter;stroke-miterlimit:4;stroke-opacity:1;stroke-dasharray:none;stroke-dashoffset:0;marker:none;visibility:visible;display:inline;overflow:visible"
         id="rect6740"
         width="41.900925"
         height="27.74136"
         x="72.293594"
         y="1016.8436"
         rx="1.7500004"
         ry="1.7500002" />
      <path
         inkscape:export-ydpi="88.305542"
         inkscape:export-xdpi="88.305542"
         inkscape:export-filename="/home/dave/Documents/KDESolutions/SugarCRM/Mobile App Icons/Contacts.png"
         inkscape:connector-curvature="0"
         sodipodi:nodetypes="cczcczc"
         id="path2329"
         d="m 78.80822,1033.6157 4.61175,0 c 1.306663,0 2.600315,-0.4791 3.0745,-1.8447 0.450296,-1.2968 0.07686,-3.7663 -2.843912,-5.7647 l -5.457239,0 c -2.920775,1.8447 -3.285779,4.3675 -2.613325,5.8416 0.685069,1.5017 1.8447,1.7678 3.228226,1.7678 z"
         style="color:#000000;fill:#666666;fill-opacity:1;fill-rule:evenodd;stroke:#c5c5c5;stroke-width:0.99999911px;stroke-linecap:round;stroke-linejoin:round;stroke-miterlimit:4;stroke-opacity:1;stroke-dasharray:none;stroke-dashoffset:0;marker:none;visibility:visible;display:inline;overflow:visible" />
      <path
         inkscape:export-ydpi="88.305542"
         inkscape:export-xdpi="88.305542"
         inkscape:export-filename="/home/dave/Documents/KDESolutions/SugarCRM/Mobile App Icons/Contacts.png"
         inkscape:connector-curvature="0"
         style="color:#000000;fill:#808080;fill-opacity:1;fill-rule:evenodd;stroke:none;stroke-width:1px;marker:none;visibility:visible;display:inline;overflow:visible"
         d="m 81.013174,1027.1593 c 0,0 -0.935395,0.7219 -0.854813,1.5916 -0.887525,-0.783 -0.913024,-2.2834 -0.913024,-2.2834 l 1.767837,0.6918 z"
         id="path3812"
         sodipodi:nodetypes="cccc" />
      <path
         inkscape:export-ydpi="88.305542"
         inkscape:export-xdpi="88.305542"
         inkscape:export-filename="/home/dave/Documents/KDESolutions/SugarCRM/Mobile App Icons/Contacts.png"
         inkscape:connector-curvature="0"
         style="opacity:0.21518986;color:#000000;fill:#808080;stroke:#ffffff;stroke-width:0.99999863px;stroke-linecap:round;stroke-linejoin:round;stroke-miterlimit:4;stroke-opacity:1;stroke-dasharray:none;stroke-dashoffset:0;marker:none;visibility:visible;display:inline;overflow:visible"
         d="m 79.063757,1032.8227 4.042376,0 c 1.034322,0 2.058344,-0.3792 2.433698,-1.4602 0.356443,-1.0265 -0.03712,-2.9813 -2.349128,-4.5632 l -4.515728,0 c -2.312013,1.4602 -2.698899,3.4572 -2.166601,4.624 0.542284,1.1887 1.460219,1.3994 2.555383,1.3994 z"
         id="path3838"
         sodipodi:nodetypes="cczcczc" />
      <path
         inkscape:export-ydpi="88.305542"
         inkscape:export-xdpi="88.305542"
         inkscape:export-filename="/home/dave/Documents/KDESolutions/SugarCRM/Mobile App Icons/Contacts.png"
         inkscape:connector-curvature="0"
         sodipodi:nodetypes="cccc"
         id="path3810"
         d="m 81.438595,1027.1593 c 0,0 0.935395,0.7219 0.854813,1.5916 0.887525,-0.783 0.913024,-2.2834 0.913024,-2.2834 l -1.767837,0.6918 z"
         style="color:#000000;fill:#808080;fill-opacity:1;fill-rule:evenodd;stroke:none;stroke-width:1px;marker:none;visibility:visible;display:inline;overflow:visible" />
      <path
         inkscape:export-ydpi="88.305542"
         inkscape:export-xdpi="88.305542"
         inkscape:export-filename="/home/dave/Documents/KDESolutions/SugarCRM/Mobile App Icons/Contacts.png"
         transform="matrix(0.4348,0,0,0.4348,67.455081,1017.0342)"
         sodipodi:type="arc"
         style="color:#000000;fill:url(#radialGradient6950);fill-opacity:1;fill-rule:evenodd;stroke:none;stroke-width:1px;marker:none;visibility:visible;display:inline;overflow:visible"
         id="path3814"
         sodipodi:cx="31.112698"
         sodipodi:cy="19.008621"
         sodipodi:rx="8.6620579"
         sodipodi:ry="8.6620579"
         d="m 39.774755,19.008621 c 0,4.783923 -3.878135,8.662058 -8.662057,8.662058 -4.783923,0 -8.662058,-3.878135 -8.662058,-8.662058 0,-4.783922 3.878135,-8.662058 8.662058,-8.662058 4.783922,0 8.662057,3.878136 8.662057,8.662058 z" />
      <path
         inkscape:export-ydpi="88.305542"
         inkscape:export-xdpi="88.305542"
         inkscape:export-filename="/home/dave/Documents/KDESolutions/SugarCRM/Mobile App Icons/Contacts.png"
         transform="matrix(0.4348,0,0,0.4348,67.509431,1015.5124)"
         d="m 39.774755,19.008621 c 0,4.783923 -3.878135,8.662058 -8.662057,8.662058 -4.783923,0 -8.662058,-3.878135 -8.662058,-8.662058 0,-4.783922 3.878135,-8.662058 8.662058,-8.662058 4.783922,0 8.662057,3.878136 8.662057,8.662058 z"
         sodipodi:ry="8.6620579"
         sodipodi:rx="8.6620579"
         sodipodi:cy="19.008621"
         sodipodi:cx="31.112698"
         id="path2327"
         style="color:#000000;fill:#808080;fill-opacity:1;fill-rule:evenodd;stroke:#4d4d4d;stroke-width:2.29990602px;stroke-linecap:round;stroke-linejoin:round;stroke-miterlimit:4;stroke-opacity:1;stroke-dasharray:none;stroke-dashoffset:0;marker:none;visibility:visible;display:inline;overflow:visible"
         sodipodi:type="arc" />
      <path
         inkscape:export-ydpi="88.305542"
         inkscape:export-xdpi="88.305542"
         inkscape:export-filename="/home/dave/Documents/KDESolutions/SugarCRM/Mobile App Icons/Contacts.png"
         inkscape:connector-curvature="0"
         id="path4173"
         d="m 83.035658,1030.3106 1.8447,0 -1.076075,-0.9992 -0.230587,0.3075 -0.230588,-0.2306 -0.30745,0.9223 z"
         style="color:#000000;fill:#808080;fill-opacity:1;fill-rule:evenodd;stroke:none;stroke-width:1px;marker:none;visibility:visible;display:inline;overflow:visible" />
      <path
         inkscape:export-ydpi="88.305542"
         inkscape:export-xdpi="88.305542"
         inkscape:export-filename="/home/dave/Documents/KDESolutions/SugarCRM/Mobile App Icons/Contacts.png"
         inkscape:connector-curvature="0"
         sodipodi:nodetypes="cccc"
         id="path4368"
         d="m 76.932832,1033.166 c -0.54246,-0.237 -0.785247,-0.808 -0.785247,-0.808 0.365789,-1.7692 1.617424,-3.0637 1.617424,-3.0637 0,0 -0.991049,2.7878 -0.832177,3.8717 z"
         style="opacity:0.22784807;color:#000000;fill:#808080;fill-opacity:1;fill-rule:evenodd;stroke:none;stroke-width:1px;marker:none;visibility:visible;display:inline;overflow:visible" />
      <path
         inkscape:export-ydpi="88.305542"
         inkscape:export-xdpi="88.305542"
         inkscape:export-filename="/home/dave/Documents/KDESolutions/SugarCRM/Mobile App Icons/Contacts.png"
         inkscape:connector-curvature="0"
         style="opacity:0.22784807;color:#000000;fill:#808080;fill-opacity:1;fill-rule:evenodd;stroke:none;stroke-width:1px;marker:none;visibility:visible;display:inline;overflow:visible"
         d="m 85.153033,1032.7928 c 0.535348,-0.2526 0.784544,-0.8706 0.784544,-0.8706 -0.417025,-1.7579 -1.728829,-2.9753 -1.728829,-2.9753 0,0 1.071605,2.7578 0.944285,3.8459 z"
         id="path4370"
         sodipodi:nodetypes="cccc" />
      <path
         inkscape:export-ydpi="88.305542"
         inkscape:export-xdpi="88.305542"
         inkscape:export-filename="/home/dave/Documents/KDESolutions/SugarCRM/Mobile App Icons/Contacts.png"
         id="text6970"
         d="m 90.088809,1022.9677 c -10e-7,0.3769 -0.08854,0.666 -0.265613,0.8672 -0.177076,0.1999 -0.418542,0.2998 -0.724398,0.2998 -0.124758,0 -0.244149,-0.023 -0.358175,-0.07 l 0,-0.5352 c 0.100611,0.076 0.211954,0.1147 0.334028,0.1147 0.150245,0 0.26293,-0.056 0.338053,-0.1671 0.07646,-0.1126 0.114696,-0.281 0.114696,-0.505 l 0,-1.7849 0.561409,0 0,1.7808 m 1.567518,-1.0302 c 0.313904,0 0.56409,0.097 0.750557,0.2898 0.186463,0.1931 0.279696,0.4527 0.279698,0.7787 -2e-6,0.3541 -0.09994,0.6305 -0.29982,0.829 -0.199882,0.1972 -0.468178,0.2958 -0.804887,0.2958 -0.309883,0 -0.56208,-0.097 -0.756594,-0.2918 -0.193173,-0.1945 -0.28976,-0.4494 -0.289759,-0.7646 -10e-7,-0.3542 0.101281,-0.6318 0.303844,-0.8331 0.202563,-0.2025 0.474883,-0.3038 0.816961,-0.3038 m -0.04628,1.7607 c 0.163659,0 0.296465,-0.058 0.398419,-0.1751 0.103292,-0.118 0.154939,-0.2783 0.154941,-0.4809 -2e-6,-0.2052 -0.05098,-0.3669 -0.152929,-0.4849 -0.101954,-0.1194 -0.232748,-0.1791 -0.392382,-0.1791 -0.158296,0 -0.292444,0.062 -0.402444,0.1871 -0.110002,0.1234 -0.165002,0.2864 -0.165002,0.489 0,0.1999 0.05366,0.3575 0.160978,0.4728 0.108659,0.1141 0.241465,0.1711 0.398419,0.1711 m 3.418758,0.3743 -0.539274,0 0,-1.1289 c -2e-6,-0.1891 -0.02884,-0.326 -0.08653,-0.4105 -0.05768,-0.086 -0.156283,-0.1288 -0.295796,-0.1288 -0.122075,0 -0.223357,0.046 -0.303844,0.1389 -0.08049,0.092 -0.120734,0.2106 -0.120734,0.3541 l 0,1.1752 -0.545311,0 0,-3.0506 0.545311,0 0,1.2778 c 0.07378,-0.1207 0.165672,-0.2113 0.275674,-0.2717 0.111342,-0.06 0.240794,-0.09 0.388358,-0.09 0.226709,0 0.397076,0.07 0.511104,0.2113 0.114023,0.1408 0.171036,0.3521 0.171038,0.6338 l 0,1.2899 m 2.471004,0 -0.539275,0 0,-1.1289 c -1e-6,-0.1891 -0.02884,-0.326 -0.08653,-0.4105 -0.05768,-0.086 -0.156284,-0.1288 -0.295796,-0.1288 -0.122076,0 -0.223357,0.046 -0.303845,0.1389 -0.08049,0.092 -0.120734,0.2106 -0.120733,0.3541 l 0,1.1752 -0.545311,0 0,-2.0606 0.545311,0 0,0.2878 c 0.07378,-0.1207 0.165672,-0.2113 0.275674,-0.2717 0.111341,-0.06 0.240794,-0.09 0.388358,-0.09 0.226708,0 0.397076,0.07 0.511103,0.2113 0.114024,0.1408 0.171037,0.3521 0.171039,0.6338 l 0,1.2899 m 1.764715,-2.8856 1.010135,0 c 0.48829,0 0.85452,0.1174 1.09867,0.3522 0.24549,0.2347 0.36823,0.5862 0.36823,1.0544 0,0.4521 -0.13817,0.8116 -0.41451,1.0785 -0.27501,0.267 -0.64794,0.4005 -1.1188,0.4005 l -0.943725,0 0,-2.8856 m 0.561409,2.4409 0.370246,0 c 0.30317,0 0.54129,-0.091 0.71434,-0.2717 0.17439,-0.1811 0.26158,-0.4286 0.26159,-0.7425 -1e-5,-0.3045 -0.0845,-0.5413 -0.25354,-0.7103 -0.16903,-0.169 -0.40446,-0.2536 -0.70629,-0.2536 l -0.386346,0 0,1.9781 m 3.356376,-1.6903 c 0.31391,0 0.56409,0.097 0.75056,0.2898 0.18646,0.1931 0.2797,0.4527 0.2797,0.7787 0,0.3541 -0.0999,0.6305 -0.29982,0.829 -0.19988,0.1972 -0.46818,0.2958 -0.80489,0.2958 -0.30988,0 -0.56208,-0.097 -0.75659,-0.2918 -0.19318,-0.1945 -0.28976,-0.4494 -0.28976,-0.7646 0,-0.3542 0.10128,-0.6318 0.30384,-0.8331 0.20256,-0.2025 0.47488,-0.3038 0.81696,-0.3038 m -0.0463,1.7607 c 0.16366,0 0.29647,-0.058 0.39842,-0.1751 0.10329,-0.118 0.15494,-0.2783 0.15494,-0.4809 0,-0.2052 -0.051,-0.3669 -0.15293,-0.4849 -0.10195,-0.1194 -0.23274,-0.1791 -0.39238,-0.1791 -0.15829,0 -0.29244,0.062 -0.40244,0.1871 -0.11,0.1234 -0.16501,0.2864 -0.165,0.489 -1e-5,0.1999 0.0537,0.3575 0.16097,0.4728 0.10866,0.1141 0.24147,0.1711 0.39842,0.1711 m 3.30004,-0.5373 -1.37233,0 c 0,0.169 0.0516,0.3005 0.15494,0.3944 0.10463,0.093 0.24951,0.1389 0.43464,0.1389 0.2039,0 0.40043,-0.061 0.58958,-0.1832 l 0,0.4468 c -0.21196,0.11 -0.4494,0.165 -0.71233,0.165 -0.31793,0 -0.56677,-0.093 -0.74653,-0.2797 -0.17842,-0.1865 -0.26763,-0.4414 -0.26763,-0.7647 0,-0.3488 0.0952,-0.6264 0.28574,-0.833 0.19183,-0.208 0.44403,-0.3119 0.75659,-0.3119 0.275,0 0.48964,0.086 0.64391,0.2575 0.15561,0.1704 0.23342,0.4085 0.23342,0.7144 l 0,0.2555 m -0.50305,-0.3622 c -1e-5,-0.1435 -0.0362,-0.2555 -0.10866,-0.336 -0.0711,-0.081 -0.17239,-0.1207 -0.30385,-0.1208 -0.11939,10e-5 -0.22269,0.042 -0.30988,0.1248 -0.0872,0.082 -0.13616,0.1925 -0.14689,0.332 l 0.86928,0"
         style="font-size:4.12102222px;font-style:normal;font-variant:normal;font-weight:bold;font-stretch:normal;text-align:start;line-height:120.00000477%;writing-mode:lr-tb;text-anchor:start;fill:#000000;fill-opacity:1;stroke:none;font-family:Segoe"
         inkscape:connector-curvature="0" />
      <rect
         inkscape:export-ydpi="88.305542"
         inkscape:export-xdpi="88.305542"
         inkscape:export-filename="/home/dave/Documents/KDESolutions/SugarCRM/Mobile App Icons/Contacts.png"
         ry="1.03125"
         rx="1.03125"
         y="1027.1923"
         x="89.745857"
         height="2"
         width="17.375"
         id="rect6978"
         style="opacity:0.3976608;color:#000000;fill:#8d8d8d;fill-opacity:1;fill-rule:evenodd;stroke:none;stroke-width:1;marker:none;visibility:visible;display:inline;overflow:visible" />
      <rect
         inkscape:export-ydpi="88.305542"
         inkscape:export-xdpi="88.305542"
         inkscape:export-filename="/home/dave/Documents/KDESolutions/SugarCRM/Mobile App Icons/Contacts.png"
         style="opacity:0.3976608;color:#000000;fill:#8d8d8d;fill-opacity:1;fill-rule:evenodd;stroke:none;stroke-width:1;marker:none;visibility:visible;display:inline;overflow:visible"
         id="rect6980"
         width="14"
         height="2"
         x="89.745857"
         y="1030.2142"
         rx="1.03125"
         ry="1.03125" />
      <g
         inkscape:export-ydpi="88.305542"
         inkscape:export-xdpi="88.305542"
         inkscape:export-filename="/home/dave/Documents/KDESolutions/SugarCRM/Mobile App Icons/Contacts.png"
         style="opacity:0.48538011"
         transform="matrix(1,0,0,0.833333,68.745857,1012.2142)"
         id="g7033">
        <rect
           style="color:#000000;fill:#000000;fill-opacity:1;fill-rule:evenodd;stroke:none;stroke-width:1;marker:none;visibility:visible;display:inline;overflow:visible"
           id="rect7003"
           width="1"
           height="6"
           x="6"
           y="30"
           rx="0"
           ry="0" />
        <rect
           ry="0"
           rx="0"
           y="30"
           x="8.0846453"
           height="3.6000135"
           width="1.9375"
           id="rect7005"
           style="color:#000000;fill:#000000;fill-opacity:1;fill-rule:evenodd;stroke:none;stroke-width:1;marker:none;visibility:visible;display:inline;overflow:visible" />
        <rect
           style="color:#000000;fill:#000000;fill-opacity:1;fill-rule:evenodd;stroke:none;stroke-width:1;marker:none;visibility:visible;display:inline;overflow:visible"
           id="rect7007"
           width="1"
           height="3.6000135"
           x="11"
           y="30" />
        <rect
           style="color:#000000;fill:#000000;fill-opacity:1;fill-rule:evenodd;stroke:none;stroke-width:1;marker:none;visibility:visible;display:inline;overflow:visible"
           id="rect7009"
           width="2"
           height="3.6000135"
           x="13"
           y="30" />
        <rect
           style="color:#000000;fill:#000000;fill-opacity:1;fill-rule:evenodd;stroke:none;stroke-width:1;marker:none;visibility:visible;display:inline;overflow:visible"
           id="rect7011"
           width="1"
           height="3.6000135"
           x="16"
           y="30" />
        <rect
           style="color:#000000;fill:#000000;fill-opacity:1;fill-rule:evenodd;stroke:none;stroke-width:1;marker:none;visibility:visible;display:inline;overflow:visible"
           id="rect7013"
           width="1"
           height="3.6000135"
           x="18"
           y="30" />
        <rect
           style="color:#000000;fill:#000000;fill-opacity:1;fill-rule:evenodd;stroke:none;stroke-width:1;marker:none;visibility:visible;display:inline;overflow:visible"
           id="rect7015"
           width="1"
           height="3.6000135"
           x="21"
           y="30" />
        <rect
           style="color:#000000;fill:#000000;fill-opacity:1;fill-rule:evenodd;stroke:none;stroke-width:1;marker:none;visibility:visible;display:inline;overflow:visible"
           id="rect7017"
           width="2"
           height="3.6000135"
           x="23"
           y="30" />
        <rect
           style="color:#000000;fill:#000000;fill-opacity:1;fill-rule:evenodd;stroke:none;stroke-width:1;marker:none;visibility:visible;display:inline;overflow:visible"
           id="rect7019"
           width="2"
           height="3.6000135"
           x="26"
           y="30" />
        <rect
           style="color:#000000;fill:#000000;fill-opacity:1;fill-rule:evenodd;stroke:none;stroke-width:1;marker:none;visibility:visible;display:inline;overflow:visible"
           id="rect7021"
           width="1"
           height="3.6000135"
           x="29"
           y="30" />
        <rect
           style="color:#000000;fill:#000000;fill-opacity:1;fill-rule:evenodd;stroke:none;stroke-width:1;marker:none;visibility:visible;display:inline;overflow:visible"
           id="rect7023"
           width="1"
           height="3.6000135"
           x="31"
           y="30" />
        <rect
           style="color:#000000;fill:#000000;fill-opacity:1;fill-rule:evenodd;stroke:none;stroke-width:1;marker:none;visibility:visible;display:inline;overflow:visible"
           id="rect7025"
           width="1"
           height="3.6000135"
           x="33"
           y="30" />
        <rect
           style="color:#000000;fill:#000000;fill-opacity:1;fill-rule:evenodd;stroke:none;stroke-width:1;marker:none;visibility:visible;display:inline;overflow:visible"
           id="rect7027"
           width="2"
           height="3.6000135"
           x="35"
           y="30" />
        <rect
           style="color:#000000;fill:#000000;fill-opacity:1;fill-rule:evenodd;stroke:none;stroke-width:1;marker:none;visibility:visible;display:inline;overflow:visible"
           id="rect7029"
           width="2"
           height="3.6000135"
           x="39"
           y="30" />
        <rect
           style="color:#000000;fill:#000000;fill-opacity:1;fill-rule:evenodd;stroke:none;stroke-width:1;marker:none;visibility:visible;display:inline;overflow:visible"
           id="rect7031"
           width="1"
           height="6"
           x="42"
           y="30" />
      </g>
      <path
         inkscape:export-ydpi="88.305542"
         inkscape:export-xdpi="88.305542"
         inkscape:export-filename="/home/dave/Documents/KDESolutions/SugarCRM/Mobile App Icons/Contacts.png"
         id="text7050"
         d="m 77.683349,1041.6124 c 0.07496,0.016 0.133376,0.049 0.175251,0.1 0.04239,0.051 0.06359,0.1132 0.06359,0.1877 -10e-7,0.1142 -0.03929,0.2026 -0.117868,0.2652 -0.07858,0.062 -0.190244,0.094 -0.334994,0.094 -0.04859,0 -0.09874,0 -0.150438,-0.015 -0.05118,-0.01 -0.104169,-0.023 -0.158967,-0.043 l 0,-0.1512 c 0.04342,0.025 0.09099,0.045 0.142683,0.057 0.0517,0.013 0.105719,0.019 0.162069,0.019 0.09822,0 0.172925,-0.019 0.224105,-0.058 0.0517,-0.039 0.07754,-0.095 0.07755,-0.169 -10e-7,-0.068 -0.02404,-0.1215 -0.07212,-0.1598 -0.04756,-0.039 -0.113992,-0.058 -0.199291,-0.058 l -0.134928,0 0,-0.1288 0.141132,0 c 0.07703,0 0.135961,-0.015 0.176802,-0.046 0.04084,-0.031 0.06126,-0.076 0.06126,-0.1334 0,-0.059 -0.0212,-0.1049 -0.06359,-0.1365 -0.04188,-0.032 -0.102101,-0.048 -0.180679,-0.048 -0.04291,0 -0.08892,0 -0.13803,0.014 -0.04911,0.01 -0.103136,0.024 -0.16207,0.043 l 0,-0.1395 c 0.05945,-0.017 0.115025,-0.029 0.166722,-0.037 0.05221,-0.01 0.101325,-0.012 0.147336,-0.012 0.118901,0 0.212989,0.027 0.282263,0.082 0.06927,0.054 0.10391,0.1266 0.103911,0.2186 -10e-7,0.064 -0.01835,0.1184 -0.05506,0.1629 -0.03671,0.044 -0.08892,0.074 -0.156641,0.091 m 0.671539,0.4924 0.546692,0 0,0.1318 -0.735126,0 0,-0.1318 c 0.05945,-0.062 0.140356,-0.144 0.242716,-0.2474 0.102876,-0.1039 0.167496,-0.1708 0.193862,-0.2008 0.05014,-0.056 0.08504,-0.1039 0.104686,-0.1427 0.02016,-0.039 0.03024,-0.078 0.03024,-0.1155 -10e-7,-0.062 -0.02171,-0.1117 -0.06514,-0.1505 -0.04291,-0.039 -0.099,-0.058 -0.168273,-0.058 -0.04911,0 -0.101067,0.01 -0.155865,0.025 -0.05428,0.017 -0.11244,0.043 -0.174476,0.078 l 0,-0.1582 c 0.06307,-0.025 0.122004,-0.044 0.176802,-0.057 0.0548,-0.013 0.104944,-0.019 0.150438,-0.019 0.119935,0 0.215574,0.03 0.286916,0.09 0.07134,0.06 0.107011,0.1401 0.107012,0.2404 -10e-7,0.048 -0.009,0.093 -0.02714,0.1357 -0.01758,0.042 -0.04989,0.092 -0.09693,0.1504 -0.01293,0.015 -0.05402,0.058 -0.123296,0.1303 -0.06927,0.071 -0.166981,0.1714 -0.29312,0.3001 m 1.306632,-0.8895 -0.395479,0.6181 0.395479,0 0,-0.6181 m -0.0411,-0.1364 0.196965,0 0,0.7545 0.16517,0 0,0.1303 -0.16517,0 0,0.2729 -0.155866,0 0,-0.2729 -0.522653,0 0,-0.1513 0.481554,-0.7335 m 0.623462,0 0.614932,0 0,0.1318 -0.471474,0 0,0.2838 c 0.02275,-0.01 0.04549,-0.013 0.06824,-0.017 0.02275,0 0.04549,-0.01 0.06824,-0.01 0.129241,0 0.231601,0.035 0.307078,0.1062 0.07548,0.071 0.113215,0.1667 0.113216,0.2877 -10e-7,0.1246 -0.03877,0.2215 -0.116317,0.2908 -0.07755,0.069 -0.186884,0.1031 -0.328016,0.1031 -0.0486,0 -0.09822,0 -0.148886,-0.012 -0.05015,-0.01 -0.102101,-0.021 -0.155865,-0.037 l 0,-0.1574 c 0.04653,0.025 0.0946,0.044 0.144233,0.057 0.04963,0.012 0.102101,0.019 0.157417,0.019 0.08943,0 0.160259,-0.024 0.212473,-0.071 0.05221,-0.047 0.07832,-0.1109 0.07832,-0.1915 0,-0.081 -0.02611,-0.1445 -0.07832,-0.1916 -0.05221,-0.047 -0.123039,-0.071 -0.212473,-0.071 -0.04187,0 -0.08375,0 -0.125623,0.014 -0.04136,0.01 -0.08375,0.024 -0.127174,0.043 l 0,-0.5816 m 1.850223,0.1031 c -0.08065,0 -0.14139,0.04 -0.18223,0.1194 -0.04032,0.079 -0.06049,0.1983 -0.06049,0.3575 0,0.1587 0.02016,0.2779 0.06049,0.3575 0.04084,0.079 0.101583,0.1186 0.18223,0.1186 0.08116,0 0.141907,-0.039 0.182231,-0.1186 0.04084,-0.08 0.06126,-0.1988 0.06126,-0.3575 -10e-7,-0.1592 -0.02042,-0.2784 -0.06126,-0.3575 -0.04032,-0.08 -0.101068,-0.1194 -0.182231,-0.1194 m 0,-0.1241 c 0.129758,0 0.228757,0.051 0.296998,0.1543 0.06875,0.1024 0.103133,0.2513 0.103134,0.4467 -1e-6,0.1949 -0.03438,0.3438 -0.103134,0.4467 -0.06824,0.1023 -0.16724,0.1535 -0.296998,0.1535 -0.129759,0 -0.229016,-0.051 -0.297772,-0.1535 -0.06824,-0.1029 -0.10236,-0.2518 -0.10236,-0.4467 0,-0.1954 0.03412,-0.3443 0.10236,-0.4467 0.06876,-0.1028 0.168013,-0.1543 0.297772,-0.1543 m 0.677743,0.021 0.614932,0 0,0.1318 -0.471473,0 0,0.2838 c 0.02275,-0.01 0.04549,-0.013 0.06824,-0.017 0.02275,0 0.04549,-0.01 0.06824,-0.01 0.129241,0 0.2316,0.036 0.307078,0.1063 0.07548,0.071 0.113215,0.1667 0.113216,0.2877 -10e-7,0.1246 -0.03877,0.2215 -0.116318,0.2908 -0.07755,0.069 -0.186884,0.1031 -0.328015,0.1031 -0.04859,0 -0.09822,0 -0.148886,-0.012 -0.05015,-0.01 -0.102102,-0.021 -0.155866,-0.037 l 0,-0.1574 c 0.04653,0.025 0.0946,0.044 0.144234,0.057 0.04963,0.012 0.1021,0.019 0.157416,0.019 0.08943,0 0.160259,-0.024 0.212473,-0.071 0.05221,-0.047 0.07832,-0.1109 0.07832,-0.1915 -1e-6,-0.081 -0.02611,-0.1445 -0.07832,-0.1916 -0.05221,-0.047 -0.123038,-0.071 -0.212473,-0.071 -0.04188,0 -0.08375,0 -0.125623,0.014 -0.04136,0.01 -0.08375,0.024 -0.127174,0.043 l 0,-0.5815 m 1.011187,0 0.614932,0 0,0.1318 -0.471474,0 0,0.2838 c 0.02275,-0.01 0.04549,-0.013 0.06824,-0.017 0.02275,0 0.04549,-0.01 0.06824,-0.01 0.129242,0 0.231601,0.035 0.307079,0.1063 0.07548,0.071 0.113214,0.1667 0.113215,0.2877 -10e-7,0.1246 -0.03877,0.2215 -0.116317,0.2908 -0.07755,0.069 -0.186884,0.1031 -0.328016,0.1031 -0.04859,0 -0.09822,0 -0.148886,-0.012 -0.05015,-0.01 -0.102101,-0.021 -0.155865,-0.037 l 0,-0.1574 c 0.04653,0.025 0.0946,0.044 0.144233,0.057 0.04963,0.012 0.102101,0.019 0.157417,0.019 0.08943,0 0.160259,-0.024 0.212473,-0.071 0.05221,-0.047 0.07832,-0.1109 0.07832,-0.1915 0,-0.081 -0.02611,-0.1445 -0.07832,-0.1916 -0.05221,-0.047 -0.123039,-0.071 -0.212473,-0.071 -0.04188,0 -0.08375,0 -0.125623,0.014 -0.04136,0.01 -0.08375,0.024 -0.127174,0.043 l 0,-0.5815 m 0.970088,0 0.744432,0 0,0.067 -0.420294,1.0911 -0.16362,0 0.395479,-1.0259 -0.555997,0 0,-0.1318 m 1.557879,0 0.614931,0 0,0.1318 -0.471473,0 0,0.2838 c 0.02275,-0.01 0.04549,-0.013 0.06824,-0.017 0.02275,0 0.04549,-0.01 0.06824,-0.01 0.129241,0 0.2316,0.035 0.307078,0.1063 0.07548,0.071 0.113215,0.1667 0.113216,0.2877 -10e-7,0.1246 -0.03877,0.2215 -0.116318,0.2908 -0.07754,0.069 -0.186884,0.1031 -0.328015,0.1031 -0.0486,0 -0.09822,0 -0.148886,-0.012 -0.05015,-0.01 -0.102101,-0.021 -0.155866,-0.037 l 0,-0.1575 c 0.04653,0.025 0.0946,0.044 0.144234,0.057 0.04963,0.012 0.1021,0.019 0.157416,0.019 0.08944,0 0.160259,-0.024 0.212473,-0.071 0.05221,-0.047 0.07832,-0.1109 0.07832,-0.1915 -10e-7,-0.081 -0.02611,-0.1445 -0.07832,-0.1916 -0.05221,-0.047 -0.123038,-0.071 -0.212473,-0.071 -0.04187,0 -0.08375,0 -0.125623,0.014 -0.04136,0.01 -0.08375,0.024 -0.127173,0.043 l 0,-0.5816 m 1.036776,1.026 0.255898,0 0,-0.8833 -0.278386,0.056 0,-0.1427 0.276836,-0.056 0.15664,0 0,1.026 0.255899,0 0,0.1318 -0.666887,0 0,-0.1318 m 1.31904,-0.9228 c -0.08065,0 -0.141391,0.04 -0.182231,0.1194 -0.04032,0.079 -0.06048,0.1983 -0.06048,0.3575 0,0.1587 0.02016,0.2779 0.06048,0.3575 0.04084,0.079 0.101584,0.1186 0.182231,0.1186 0.08116,0 0.141907,-0.039 0.182231,-0.1186 0.04084,-0.08 0.06126,-0.1988 0.06126,-0.3575 0,-0.1592 -0.02042,-0.2784 -0.06126,-0.3575 -0.04032,-0.08 -0.101068,-0.1194 -0.182231,-0.1194 m 0,-0.1241 c 0.129758,0 0.228757,0.051 0.296997,0.1543 0.06876,0.1024 0.103134,0.2513 0.103135,0.4467 -1e-6,0.1949 -0.03438,0.3438 -0.103135,0.4466 -0.06824,0.1024 -0.167239,0.1536 -0.296997,0.1536 -0.129759,0 -0.229016,-0.051 -0.297773,-0.1536 -0.06824,-0.1028 -0.102359,-0.2517 -0.102359,-0.4466 0,-0.1954 0.03412,-0.3443 0.102359,-0.4467 0.06876,-0.1029 0.168014,-0.1543 0.297773,-0.1543 m 1.030573,0.5374 c -0.07031,0 -0.12614,0.024 -0.167497,0.072 -0.04084,0.048 -0.06126,0.114 -0.06126,0.1978 0,0.083 0.02042,0.1491 0.06126,0.1977 0.04136,0.048 0.09719,0.072 0.167497,0.072 0.07031,0 0.125881,-0.024 0.166722,-0.072 0.04136,-0.049 0.06203,-0.1145 0.06204,-0.1977 -10e-7,-0.084 -0.02068,-0.1497 -0.06204,-0.1978 -0.04084,-0.048 -0.09642,-0.072 -0.166722,-0.072 m 0.310955,-0.4909 0,0.1427 c -0.03929,-0.019 -0.0791,-0.033 -0.119419,-0.043 -0.03981,-0.01 -0.07935,-0.015 -0.118644,-0.015 -0.103393,0 -0.182489,0.035 -0.237287,0.1047 -0.05428,0.07 -0.0853,0.1753 -0.09305,0.3164 0.0305,-0.045 0.06876,-0.079 0.114766,-0.1031 0.04601,-0.024 0.09667,-0.037 0.151988,-0.037 0.116317,0 0.208079,0.035 0.275285,0.1063 0.06772,0.07 0.101583,0.1662 0.101584,0.2877 -10e-7,0.1189 -0.03515,0.2142 -0.105461,0.2861 -0.07031,0.072 -0.163879,0.1078 -0.280713,0.1078 -0.133895,0 -0.236254,-0.051 -0.307078,-0.1536 -0.07082,-0.1028 -0.106237,-0.2517 -0.106237,-0.4466 0,-0.183 0.04342,-0.3288 0.130276,-0.4374 0.08685,-0.1091 0.203426,-0.1636 0.349728,-0.1636 0.03929,0 0.07884,0 0.118644,0.012 0.04032,0.01 0.0822,0.019 0.125622,0.035 m 0.852995,-0.026 0.614932,0 0,0.1319 -0.471474,0 0,0.2838 c 0.02275,-0.01 0.04549,-0.014 0.06824,-0.017 0.02275,0 0.04549,-0.01 0.06824,-0.01 0.129241,0 0.2316,0.035 0.307078,0.1063 0.07548,0.071 0.113215,0.1667 0.113215,0.2876 0,0.1246 -0.03877,0.2216 -0.116317,0.2908 -0.07755,0.069 -0.186884,0.1032 -0.328015,0.1032 -0.0486,0 -0.09822,0 -0.148887,-0.012 -0.05015,-0.01 -0.102101,-0.021 -0.155865,-0.037 l 0,-0.1574 c 0.04653,0.025 0.09461,0.044 0.144234,0.057 0.04963,0.012 0.1021,0.019 0.157416,0.019 0.08943,0 0.160259,-0.024 0.212473,-0.071 0.05221,-0.047 0.07832,-0.1109 0.07832,-0.1916 -10e-7,-0.081 -0.02611,-0.1444 -0.07832,-0.1915 -0.05221,-0.047 -0.123038,-0.071 -0.212473,-0.071 -0.04188,0 -0.08375,0 -0.125623,0.014 -0.04136,0.01 -0.08375,0.024 -0.127174,0.043 l 0,-0.5816 m 1.440011,0.1365 -0.39548,0.618 0.39548,0 0,-0.618 m -0.0411,-0.1365 0.196964,0 0,0.7545 0.165171,0 0,0.1303 -0.165171,0 0,0.273 -0.155865,0 0,-0.273 -0.522654,0 0,-0.1512 0.481555,-0.7336 m 0.956905,0.1032 c -0.08065,0 -0.141391,0.04 -0.182231,0.1194 -0.04032,0.079 -0.06048,0.1982 -0.06048,0.3575 0,0.1587 0.02016,0.2778 0.06048,0.3574 0.04084,0.079 0.101584,0.1187 0.182231,0.1187 0.08116,0 0.141907,-0.04 0.182231,-0.1187 0.04084,-0.08 0.06126,-0.1987 0.06126,-0.3574 -10e-7,-0.1593 -0.02042,-0.2784 -0.06126,-0.3575 -0.04032,-0.08 -0.101068,-0.1194 -0.182231,-0.1194 m 0,-0.1241 c 0.129758,0 0.228757,0.051 0.296997,0.1543 0.06876,0.1024 0.103134,0.2513 0.103135,0.4467 -10e-7,0.1949 -0.03438,0.3437 -0.103135,0.4466 -0.06824,0.1024 -0.167239,0.1536 -0.296997,0.1536 -0.129759,0 -0.229017,-0.051 -0.297773,-0.1536 -0.06824,-0.1029 -0.102359,-0.2517 -0.102359,-0.4466 0,-0.1954 0.03412,-0.3443 0.102359,-0.4467 0.06876,-0.1029 0.168014,-0.1543 0.297773,-0.1543 m 1.030572,0.5374 c -0.07031,0 -0.12614,0.024 -0.167497,0.072 -0.04084,0.048 -0.06126,0.114 -0.06126,0.1977 0,0.083 0.02042,0.1492 0.06126,0.1978 0.04136,0.048 0.09719,0.072 0.167497,0.072 0.07031,0 0.12588,-0.024 0.166721,-0.072 0.04136,-0.049 0.06204,-0.1145 0.06204,-0.1978 0,-0.084 -0.02068,-0.1496 -0.06204,-0.1977 -0.04084,-0.048 -0.09641,-0.072 -0.166721,-0.072 m 0.310955,-0.4909 0,0.1427 c -0.03929,-0.019 -0.0791,-0.033 -0.119419,-0.043 -0.03981,-0.01 -0.07935,-0.015 -0.118644,-0.015 -0.103394,0 -0.18249,0.035 -0.237288,0.1047 -0.05428,0.07 -0.0853,0.1753 -0.09305,0.3164 0.0305,-0.045 0.06876,-0.079 0.114767,-0.1031 0.04601,-0.024 0.09667,-0.037 0.151988,-0.037 0.116317,0 0.208078,0.035 0.275285,0.1062 0.06772,0.07 0.101583,0.1662 0.101584,0.2877 -10e-7,0.1189 -0.03515,0.2143 -0.105461,0.2862 -0.07031,0.072 -0.163879,0.1078 -0.280713,0.1078 -0.133895,0 -0.236254,-0.051 -0.307078,-0.1536 -0.07083,-0.1029 -0.106237,-0.2517 -0.106237,-0.4466 0,-0.183 0.04342,-0.3288 0.130276,-0.4374 0.08685,-0.1091 0.203425,-0.1636 0.349727,-0.1636 0.03929,0 0.07884,0 0.118644,0.012 0.04032,0.01 0.0822,0.019 0.125623,0.035 m 0.852996,-0.026 0.614932,0 0,0.1318 -0.471474,0 0,0.2839 c 0.02275,-0.01 0.04549,-0.014 0.06824,-0.017 0.02275,0 0.04549,-0.01 0.06824,-0.01 0.129241,0 0.231601,0.035 0.307078,0.1062 0.07548,0.071 0.113215,0.1668 0.113216,0.2877 -10e-7,0.1246 -0.03877,0.2216 -0.116317,0.2908 -0.07755,0.069 -0.186884,0.1032 -0.328016,0.1032 -0.0486,0 -0.09822,0 -0.148886,-0.013 -0.05015,-0.01 -0.102101,-0.021 -0.155865,-0.037 l 0,-0.1574 c 0.04653,0.025 0.0946,0.044 0.144233,0.057 0.04963,0.012 0.102101,0.019 0.157417,0.019 0.08943,0 0.160259,-0.024 0.212473,-0.071 0.05221,-0.047 0.07832,-0.1109 0.07832,-0.1916 0,-0.081 -0.02611,-0.1445 -0.07832,-0.1915 -0.05221,-0.047 -0.123039,-0.071 -0.212473,-0.071 -0.04188,0 -0.08375,0 -0.125623,0.014 -0.04136,0.01 -0.08375,0.024 -0.127174,0.043 l 0,-0.5816 m 1.44001,0.1365 -0.395479,0.618 0.395479,0 0,-0.618 m -0.0411,-0.1365 0.196965,0 0,0.7545 0.165171,0 0,0.1303 -0.165171,0 0,0.273 -0.155866,0 0,-0.273 -0.522653,0 0,-0.1512 0.481554,-0.7336 m 0.976292,0.5165 c -0.07031,0 -0.12614,0.024 -0.167497,0.072 -0.04084,0.048 -0.06126,0.114 -0.06126,0.1977 0,0.083 0.02042,0.1492 0.06126,0.1978 0.04136,0.048 0.09719,0.072 0.167497,0.072 0.07031,0 0.125881,-0.024 0.166722,-0.072 0.04136,-0.049 0.06204,-0.1145 0.06204,-0.1978 -10e-7,-0.084 -0.02068,-0.1496 -0.06204,-0.1977 -0.04084,-0.048 -0.09641,-0.072 -0.166722,-0.072 m 0.310955,-0.4909 0,0.1427 c -0.03929,-0.019 -0.0791,-0.033 -0.119419,-0.043 -0.03981,-0.01 -0.07935,-0.015 -0.118644,-0.015 -0.103394,0 -0.18249,0.035 -0.237288,0.1047 -0.05428,0.07 -0.0853,0.1752 -0.09305,0.3164 0.0305,-0.045 0.06876,-0.079 0.114767,-0.1032 0.04601,-0.024 0.09667,-0.036 0.151988,-0.036 0.116317,0 0.208079,0.035 0.275285,0.1062 0.06772,0.07 0.101583,0.1662 0.101584,0.2877 -10e-7,0.1189 -0.03515,0.2143 -0.105461,0.2862 -0.07031,0.072 -0.163879,0.1077 -0.280713,0.1077 -0.133895,0 -0.236254,-0.051 -0.307078,-0.1535 -0.07083,-0.1029 -0.106237,-0.2518 -0.106237,-0.4467 0,-0.183 0.04342,-0.3287 0.130276,-0.4373 0.08685,-0.1091 0.203426,-0.1636 0.349728,-0.1636 0.03929,0 0.07884,0 0.118643,0.012 0.04032,0.01 0.0822,0.019 0.125623,0.035 m 0.347402,-0.026 0.614931,0 0,0.1318 -0.471473,0 0,0.2838 c 0.02275,-0.01 0.04549,-0.013 0.06824,-0.017 0.02275,0 0.04549,-0.01 0.06824,-0.01 0.129241,0 0.2316,0.035 0.307078,0.1062 0.07548,0.071 0.113215,0.1667 0.113216,0.2877 -10e-7,0.1246 -0.03877,0.2215 -0.116318,0.2908 -0.07755,0.069 -0.186884,0.1031 -0.328015,0.1031 -0.04859,0 -0.09822,0 -0.148886,-0.012 -0.05015,-0.01 -0.102101,-0.021 -0.155866,-0.037 l 0,-0.1574 c 0.04653,0.025 0.09461,0.044 0.144234,0.057 0.04963,0.012 0.102101,0.019 0.157416,0.019 0.08943,0 0.160259,-0.024 0.212474,-0.071 0.05221,-0.047 0.07832,-0.1108 0.07832,-0.1915 -10e-7,-0.081 -0.02611,-0.1445 -0.07832,-0.1915 -0.05222,-0.047 -0.123039,-0.071 -0.212474,-0.071 -0.04187,0 -0.08375,0 -0.125622,0.014 -0.04136,0.01 -0.08375,0.024 -0.127174,0.043 l 0,-0.5816 m 1.47568,0 0.744427,0 0,0.067 -0.42029,1.091 -0.16362,0 0.39548,-1.0259 -0.555997,0 0,-0.1318 m 1.385727,0.1031 c -0.0806,0 -0.14139,0.04 -0.18223,0.1195 -0.0403,0.079 -0.0605,0.1982 -0.0605,0.3574 0,0.1587 0.0202,0.2779 0.0605,0.3575 0.0408,0.079 0.10159,0.1187 0.18223,0.1187 0.0812,0 0.14191,-0.04 0.18223,-0.1187 0.0408,-0.08 0.0613,-0.1988 0.0613,-0.3575 0,-0.1592 -0.0204,-0.2784 -0.0613,-0.3574 -0.0403,-0.08 -0.10106,-0.1195 -0.18223,-0.1195 m 0,-0.124 c 0.12976,0 0.22876,0.051 0.297,0.1543 0.0688,0.1023 0.10313,0.2512 0.10314,0.4466 -1e-5,0.1949 -0.0344,0.3438 -0.10314,0.4467 -0.0682,0.1024 -0.16724,0.1535 -0.297,0.1535 -0.12976,0 -0.22901,-0.051 -0.29777,-0.1535 -0.0682,-0.1029 -0.10236,-0.2518 -0.10236,-0.4467 0,-0.1954 0.0341,-0.3443 0.10236,-0.4466 0.0688,-0.1029 0.16801,-0.1543 0.29777,-0.1543 m 1.03057,0.5373 c -0.0703,0 -0.12614,0.024 -0.16749,0.072 -0.0408,0.048 -0.0613,0.114 -0.0613,0.1977 0,0.083 0.0204,0.1492 0.0613,0.1977 0.0414,0.048 0.0972,0.072 0.16749,0.072 0.0703,0 0.12588,-0.024 0.16673,-0.072 0.0414,-0.048 0.062,-0.1145 0.062,-0.1977 0,-0.084 -0.0207,-0.1497 -0.062,-0.1977 -0.0408,-0.048 -0.0964,-0.072 -0.16673,-0.072 m 0.31096,-0.4908 0,0.1427 c -0.0393,-0.019 -0.0791,-0.033 -0.11942,-0.043 -0.0398,-0.01 -0.0793,-0.015 -0.11864,-0.015 -0.1034,0 -0.18249,0.035 -0.23729,0.1047 -0.0543,0.07 -0.0853,0.1752 -0.093,0.3164 0.0305,-0.045 0.0688,-0.079 0.11477,-0.1032 0.046,-0.024 0.0967,-0.036 0.15198,-0.036 0.11632,0 0.20808,0.035 0.27529,0.1062 0.0677,0.07 0.10158,0.1662 0.10158,0.2877 0,0.1189 -0.0352,0.2143 -0.10546,0.2861 -0.0703,0.072 -0.16388,0.1078 -0.28071,0.1078 -0.1339,0 -0.23626,-0.051 -0.30708,-0.1535 -0.0708,-0.1029 -0.10624,-0.2518 -0.10624,-0.4467 0,-0.183 0.0434,-0.3288 0.13028,-0.4373 0.0869,-0.1091 0.20342,-0.1636 0.34973,-0.1636 0.0393,0 0.0788,0 0.11864,0.012 0.0403,0.01 0.0822,0.019 0.12562,0.035 m 0.34741,-0.026 0.61493,0 0,0.1318 -0.47147,0 0,0.2838 c 0.0228,-0.01 0.0455,-0.013 0.0682,-0.017 0.0228,0 0.0455,-0.01 0.0682,-0.01 0.12924,0 0.2316,0.035 0.30707,0.1062 0.0755,0.071 0.11322,0.1667 0.11322,0.2877 0,0.1246 -0.0388,0.2215 -0.11632,0.2908 -0.0776,0.069 -0.18688,0.1031 -0.32801,0.1031 -0.0486,0 -0.0982,0 -0.14889,-0.012 -0.0502,-0.01 -0.1021,-0.021 -0.15587,-0.037 l 0,-0.1574 c 0.0465,0.025 0.0946,0.044 0.14424,0.057 0.0496,0.012 0.1021,0.019 0.15741,0.019 0.0894,0 0.16026,-0.024 0.21248,-0.071 0.0522,-0.047 0.0783,-0.1109 0.0783,-0.1915 0,-0.081 -0.0261,-0.1445 -0.0783,-0.1915 -0.0522,-0.047 -0.12304,-0.071 -0.21248,-0.071 -0.0419,0 -0.0837,0 -0.12562,0.014 -0.0414,0.01 -0.0838,0.024 -0.12717,0.043 l 0,-0.5816 m 1.47568,0 0.74443,0 0,0.067 -0.42029,1.091 -0.16362,0 0.39548,-1.0259 -0.556,0 0,-0.1318 m 1.40511,0.5164 c -0.0703,0 -0.12614,0.024 -0.16749,0.072 -0.0408,0.048 -0.0613,0.1139 -0.0613,0.1977 0,0.083 0.0204,0.1491 0.0613,0.1977 0.0414,0.048 0.0972,0.072 0.16749,0.072 0.0703,0 0.12588,-0.024 0.16672,-0.072 0.0414,-0.049 0.062,-0.1145 0.062,-0.1977 0,-0.084 -0.0207,-0.1497 -0.062,-0.1977 -0.0408,-0.048 -0.0964,-0.072 -0.16672,-0.072 m 0.31096,-0.4908 0,0.1427 c -0.0393,-0.019 -0.0791,-0.033 -0.11942,-0.043 -0.0398,-0.01 -0.0794,-0.015 -0.11864,-0.015 -0.1034,0 -0.18249,0.035 -0.23729,0.1047 -0.0543,0.07 -0.0853,0.1752 -0.0931,0.3163 0.0305,-0.045 0.0688,-0.079 0.11476,-0.1031 0.046,-0.024 0.0967,-0.036 0.15199,-0.036 0.11632,0 0.20808,0.035 0.27529,0.1062 0.0677,0.07 0.10158,0.1662 0.10158,0.2877 0,0.1189 -0.0352,0.2143 -0.10546,0.2861 -0.0703,0.072 -0.16388,0.1078 -0.28071,0.1078 -0.1339,0 -0.23626,-0.051 -0.30708,-0.1535 -0.0708,-0.1029 -0.10624,-0.2518 -0.10624,-0.4467 0,-0.183 0.0434,-0.3288 0.13028,-0.4373 0.0868,-0.1091 0.20342,-0.1637 0.34973,-0.1637 0.0393,0 0.0788,0 0.11864,0.012 0.0403,0.01 0.0822,0.019 0.12562,0.035 m 0.30631,-0.026 0.74443,0 0,0.067 -0.4203,1.091 -0.16362,0 0.39548,-1.0259 -0.55599,0 0,-0.1318 m 1.05538,1.1337 0,-0.1427 c 0.0393,0.019 0.0791,0.033 0.11942,0.043 0.0403,0.01 0.0799,0.015 0.11865,0.015 0.10339,0 0.18223,-0.035 0.23651,-0.1039 0.0548,-0.07 0.0861,-0.1755 0.0938,-0.3172 -0.03,0.044 -0.068,0.079 -0.11399,0.1024 -0.046,0.024 -0.0969,0.036 -0.15277,0.036 -0.1158,0 -0.20756,-0.035 -0.27528,-0.1046 -0.0672,-0.07 -0.10081,-0.1662 -0.10081,-0.2877 0,-0.1189 0.0352,-0.2143 0.10546,-0.2862 0.0703,-0.072 0.16388,-0.1078 0.28071,-0.1078 0.1339,0 0.236,0.052 0.30631,0.1544 0.0708,0.1023 0.10623,0.2512 0.10623,0.4466 0,0.1825 -0.0434,0.3283 -0.13027,0.4374 -0.0863,0.1085 -0.20265,0.1628 -0.34896,0.1628 -0.0393,0 -0.0791,0 -0.11941,-0.012 -0.0403,-0.01 -0.0822,-0.019 -0.12563,-0.035 m 0.31173,-0.4909 c 0.0703,0 0.12588,-0.024 0.16672,-0.072 0.0414,-0.048 0.062,-0.114 0.062,-0.1977 0,-0.083 -0.0207,-0.1489 -0.062,-0.197 -0.0408,-0.049 -0.0964,-0.073 -0.16672,-0.073 -0.0703,0 -0.12614,0.024 -0.16749,0.073 -0.0408,0.048 -0.0613,0.1137 -0.0613,0.197 0,0.084 0.0204,0.1496 0.0613,0.1977 0.0414,0.048 0.0972,0.072 0.16749,0.072 m 0.69946,0.4909 0,-0.1427 c 0.0393,0.019 0.0791,0.033 0.11942,0.043 0.0403,0.01 0.0799,0.015 0.11864,0.015 0.10339,0 0.18223,-0.035 0.23651,-0.1039 0.0548,-0.07 0.0861,-0.1755 0.0938,-0.3172 -0.03,0.044 -0.068,0.079 -0.11399,0.1024 -0.046,0.024 -0.0969,0.036 -0.15276,0.036 -0.1158,0 -0.20756,-0.035 -0.27528,-0.1046 -0.0672,-0.07 -0.10081,-0.1663 -0.10081,-0.2877 0,-0.1189 0.0352,-0.2143 0.10546,-0.2862 0.0703,-0.072 0.16388,-0.1078 0.28071,-0.1078 0.13389,0 0.236,0.052 0.3063,0.1543 0.0708,0.1024 0.10624,0.2513 0.10624,0.4467 0,0.1825 -0.0434,0.3283 -0.13028,0.4374 -0.0863,0.1085 -0.20265,0.1628 -0.34895,0.1628 -0.0393,0 -0.0791,0 -0.11942,-0.012 -0.0403,-0.01 -0.0822,-0.019 -0.12562,-0.035 m 0.31173,-0.4909 c 0.0703,0 0.12588,-0.024 0.16672,-0.072 0.0414,-0.048 0.062,-0.114 0.062,-0.1977 0,-0.083 -0.0207,-0.1489 -0.062,-0.197 -0.0408,-0.049 -0.0964,-0.073 -0.16672,-0.073 -0.0703,0 -0.12614,0.024 -0.1675,0.073 -0.0408,0.048 -0.0613,0.1137 -0.0613,0.197 0,0.084 0.0204,0.1496 0.0613,0.1977 0.0414,0.048 0.0972,0.072 0.1675,0.072"
         style="font-size:1.58812129px;font-style:normal;font-variant:normal;font-weight:normal;font-stretch:normal;line-height:120.00000477%;writing-mode:lr-tb;text-anchor:start;fill:#000000;fill-opacity:1;stroke:none;font-family:Bitstream Vera Sans"
         inkscape:connector-curvature="0" />
    </g>
    <rect
       style="opacity:0.98999999;fill:url(#radialGradient3037);fill-opacity:1;stroke:url(#linearGradient3039);stroke-width:0.99882817"
       id="rect2985-1"
       width="56.776413"
       height="57.090424"
       x="0.019905766"
       y="995.28333"
       rx="9.9607735"
       inkscape:export-filename="/home/dave/Documents/KDESolutions/SugarCRM/Mobile App Icons/Contacts.png"
       inkscape:export-xdpi="88.305542"
       inkscape:export-ydpi="88.305542" />
  </g>
</svg>
